{
   "accessors" : [
      {
         "bufferView" : 2,
         "byteOffset" : 0,
         "componentType" : 5126,
         "count" : 9845,
         "max" : [ 1, 1, 1, 1 ],
         "min" : [ 5.692175545846112e-05, 0.006584956776350737, 0.006584956776350737, 1 ],
         "name" : "accessor_color_m0-PolyPaper18_-47958",
         "type" : "VEC4"
      },
      {
         "bufferView" : 2,
         "byteOffset" : 157520,
         "componentType" : 5126,
         "count" : 9926,
         "max" : [ 1, 1, 1, 1 ],
         "min" : [ 5.692175545846112e-05, 0.05284162983298302, 0.0328759141266346, 1 ],
         "name" : "accessor_color_m1-PolyPaper8_-48158",
         "type" : "VEC4"
      },
      {
         "bufferView" : 2,
         "byteOffset" : 316336,
         "componentType" : 5126,
         "count" : 1528,
         "max" : [ 1, 0.6120656132698059, 0.7893137335777283, 1 ],
         "min" : [ 5.692175545846112e-05, 0.05284162983298302, 0.0328759141266346, 1 ],
         "name" : "accessor_color_m2-PolyPaper6_-48160",
         "type" : "VEC4"
      },
      {
         "bufferView" : 0,
         "byteOffset" : 0,
         "componentType" : 5123,
         "count" : 11013,
         "max" : [ 9844 ],
         "min" : [ 0 ],
         "name" : "accessor_indices_0_m0-PolyPaper18_-47958",
         "type" : "SCALAR"
      },
      {
         "bufferView" : 0,
         "byteOffset" : 22026,
         "componentType" : 5123,
         "count" : 11568,
         "max" : [ 9925 ],
         "min" : [ 0 ],
         "name" : "accessor_indices_0_m1-PolyPaper8_-48158",
         "type" : "SCALAR"
      },
      {
         "bufferView" : 0,
         "byteOffset" : 45162,
         "componentType" : 5123,
         "count" : 1872,
         "max" : [ 1527 ],
         "min" : [ 0 ],
         "name" : "accessor_indices_0_m2-PolyPaper6_-48160",
         "type" : "SCALAR"
      },
      {
         "bufferView" : 1,
         "byteOffset" : 118140,
         "componentType" : 5126,
         "count" : 9845,
         "max" : [ 0.9996526999999999, 0.998713, 0.9991122 ],
         "min" : [ -0.9996414, -0.9999411, -0.9993048 ],
         "name" : "accessor_normal_m0-PolyPaper18_-47958",
         "type" : "VEC3"
      },
      {
         "bufferView" : 1,
         "byteOffset" : 355392,
         "componentType" : 5126,
         "count" : 9926,
         "max" : [ 0.9989529, 0.9998316, 0.9996784 ],
         "min" : [ -0.9997258999999999, -0.9990097999999999, -0.9992689 ],
         "name" : "accessor_normal_m1-PolyPaper8_-48158",
         "type" : "VEC3"
      },
      {
         "bufferView" : 1,
         "byteOffset" : 492840,
         "componentType" : 5126,
         "count" : 1528,
         "max" : [ 0.9978943, 0.9985365, 0.9995638 ],
         "min" : [ -0.9979653000000001, -0.9985157, -0.9995637000000001 ],
         "name" : "accessor_normal_m2-PolyPaper6_-48160",
         "type" : "VEC3"
      },
      {
         "bufferView" : 1,
         "byteOffset" : 0,
         "componentType" : 5126,
         "count" : 9845,
         "max" : [ -0.04503662, 2.198503, -0.1910671 ],
         "min" : [ -1.165477, 0.4606971, -1.175099 ],
         "name" : "accessor_position_m0-PolyPaper18_-47958",
         "type" : "VEC3"
      },
      {
         "bufferView" : 1,
         "byteOffset" : 236280,
         "componentType" : 5126,
         "count" : 9926,
         "max" : [ -0.01413539, 2.268744, -0.2116822 ],
         "min" : [ -1.15294, 0.4394391, -1.201225 ],
         "name" : "accessor_position_m1-PolyPaper8_-48158",
         "type" : "VEC3"
      },
      {
         "bufferView" : 1,
         "byteOffset" : 474504,
         "componentType" : 5126,
         "count" : 1528,
         "max" : [ -0.3822483, 2.318085, -0.1754429 ],
         "min" : [ -0.6728593, 0.5009418, -0.7466018 ],
         "name" : "accessor_position_m2-PolyPaper6_-48160",
         "type" : "VEC3"
      }
   ],
   "asset" : {
      "copyright" : "Unknown",
      "extras" : {
         "GOOGLE_processor_version" : 294144208
      },
      "generator" : "glTF 1-to-2 Upgrader for Google Blocks",
      "version" : "2.0"
   },
   "bufferViews" : [
      {
         "buffer" : 0,
         "byteLength" : 48906,
         "byteOffset" : 0,
         "name" : "ushortBufferView",
         "target" : 34963
      },
      {
         "buffer" : 0,
         "byteLength" : 511176,
         "byteOffset" : 48906,
         "byteStride" : 12,
         "name" : "vec3BufferView",
         "target" : 34962
      },
      {
         "buffer" : 0,
         "byteLength" : 340784,
         "byteOffset" : 560082,
         "byteStride" : 16,
         "name" : "vec4BufferView",
         "target" : 34962
      }
   ],
   "buffers" : [
      {
         "byteLength" : 900866,
         "name" : "model",
         "uri" : "model.bin"
      }
   ],
   "cameras" : [
      {
         "perspective" : {
            "yfov" : 0.7853981633974483,
            "znear" : 0.1000000014901161
         },
         "type" : "perspective"
      }
   ],
   "extensions" : {
      "KHR_lights_punctual" : {
         "lights" : [
            {
               "color" : [ 1, 0.9333333333333333, 0.8666666666666667 ],
               "intensity" : 0.25,
               "name" : "headLight",
               "type" : "directional"
            },
            {
               "color" : [ 1, 0.9333333333333333, 0.8666666666666667 ],
               "intensity" : 0.324999988079071,
               "name" : "keyLight",
               "type" : "directional"
            }
         ]
      }
   },
   "extensionsUsed" : [ "GOOGLE_backgrounds", "GOOGLE_camera_settings", "KHR_lights_punctual" ],
   "extras" : {
      "GOOGLE_initial_camera_motion" : {
         "motionPath" : "FULL_ROTATION"
      },
      "GOOGLE_lighting_rig" : {
         "disableShadows" : false
      }
   },
   "materials" : [
      {
         "alphaMode" : "OPAQUE",
         "doubleSided" : false,
         "name" : "BlocksPaper",
         "pbrMetallicRoughness" : {
            "baseColorFactor" : [ 1, 1, 1, 1 ],
            "metallicFactor" : 0,
            "roughnessFactor" : 0.6
         }
      },
      {
         "alphaMode" : "BLEND",
         "doubleSided" : false,
         "name" : "BlocksGlass",
         "pbrMetallicRoughness" : {
            "baseColorFactor" : [ 0.2, 0.2, 1, 0.3 ],
            "metallicFactor" : 1,
            "roughnessFactor" : 0.4
         }
      },
      {
         "alphaMode" : "OPAQUE",
         "doubleSided" : true,
         "name" : "BlocksGem",
         "pbrMetallicRoughness" : {
            "baseColorFactor" : [ 1, 0.4, 1, 1 ],
            "metallicFactor" : 0,
            "roughnessFactor" : 0.1
         }
      }
   ],
   "meshes" : [
      {
         "name" : "mesh_m0-PolyPaper18_-47958",
         "primitives" : [
            {
               "attributes" : {
                  "COLOR_0" : 0,
                  "NORMAL" : 6,
                  "POSITION" : 9
               },
               "indices" : 3,
               "material" : 0,
               "mode" : 4
            }
         ]
      },
      {
         "name" : "mesh_m1-PolyPaper8_-48158",
         "primitives" : [
            {
               "attributes" : {
                  "COLOR_0" : 1,
                  "NORMAL" : 7,
                  "POSITION" : 10
               },
               "indices" : 4,
               "material" : 0,
               "mode" : 4
            }
         ]
      },
      {
         "name" : "mesh_m2-PolyPaper6_-48160",
         "primitives" : [
            {
               "attributes" : {
                  "COLOR_0" : 2,
                  "NORMAL" : 8,
                  "POSITION" : 11
               },
               "indices" : 5,
               "material" : 0,
               "mode" : 4
            }
         ]
      }
   ],
   "nodes" : [
      {
         "mesh" : 2,
         "name" : "node_MeshObject-169514240-PolyPaper6"
      },
      {
         "mesh" : 0,
         "name" : "node_MeshObject-1870735680-PolyPaper18"
      },
      {
         "mesh" : 1,
         "name" : "node_MeshObject-688234304-PolyPaper8"
      },
      {
         "children" : [ 4 ]
      },
      {
         "children" : [ 5 ],
         "extras" : {
            "isTransformNode" : 1
         },
         "translation" : [ -0.5512037181613516, 1.206274376001498, -0.6946300699220443 ]
      },
      {
         "children" : [ 1, 2, 0 ],
         "translation" : [ 0.5512037181613516, -1.206274376001498, 0.6946300699220443 ]
      },
      {
         "camera" : 0,
         "children" : [ 7 ],
         "rotation" : [
            0.1033053190444321,
            -0.1313700341123873,
            0.01376615390972094,
            0.9858399556728122
         ],
         "translation" : [ -1.168624520301819, 0.7897036671638489, 1.794359683990479 ]
      },
      {
         "extensions" : {
            "KHR_lights_punctual" : {
               "light" : 0
            }
         },
         "extras" : {
            "isHeadLight" : 1
         },
         "name" : "headLightNode",
         "translation" : [ -1.395044323150259, 0.6975221615751296, 0.6975221615751296 ]
      },
      {
         "extensions" : {
            "KHR_lights_punctual" : {
               "light" : 1
            }
         },
         "extras" : {
            "isKeyLight" : 1
         },
         "name" : "keyLightNode",
         "rotation" : [ -0.7505326882858236, -0.3752663441429118, 0, 0.5439447166468927 ],
         "scale" : [ 0, 0, 1.408994766381762 ],
         "translation" : [ -1.945908830388249, 4.441466862118766, -2.052466902035727 ]
      }
   ],
   "scene" : 0,
   "scenes" : [
      {
         "extensions" : {
            "GOOGLE_backgrounds" : {
               "color" : [ 0.9725490196078431, 0.7333333333333333, 0.8156862745098039 ]
            },
            "GOOGLE_camera_settings" : {}
         },
         "extras" : {
            "GOOGLE_camera_index" : {
               "cameraIndex" : 0,
               "nodeIndex" : 6
            },
            "GOOGLE_geometry_data" : {
               "stats" : {
                  "centroid" : [ -0.5369140640064872, 1.623477329355242, -0.6434721356539655 ],
                  "radius" : 1.395044323150259,
                  "stdev" : 0.5334208789816142
               },
               "visualCenterPoint" : [ -0.5512037181613516, 1.206274376001498, -0.6946300699220443 ]
            },
            "GOOGLE_hemi_light" : {
               "groundColor" : [ 0.9725490196078431, 0.7333333333333333, 0.8156862745098039 ]
            }
         },
         "name" : "defaultScene",
         "nodes" : [ 3, 6, 8 ]
      }
   ]
}
